<?xml version="1.0" encoding="utf-8"?>
<!-- Generator: Adobe Illustrator 19.0.1, SVG Export Plug-In . SVG Version: 6.00 Build 0)  -->
<svg version="1.1" id="Layer_1" xmlns="http://www.w3.org/2000/svg" xmlns:xlink="http://www.w3.org/1999/xlink" x="0px" y="0px"
	 viewBox="-296 388.4 17.6 17.6" style="enable-background:new -296 388.4 17.6 17.6;" xml:space="preserve">
<style type="text/css">
	.st0{fill:#D3D2D2;}
</style>
<path class="st0" d="M-278.7,404.1l-3.4-3.4c1-1.3,1.5-2.9,1.5-4.6c0-4.3-3.4-7.7-7.7-7.7c-4.3,0-7.7,3.4-7.7,7.7
	c0,4.3,3.4,7.7,7.7,7.7c1.7,0,3.3-0.6,4.6-1.5l3.4,3.4c0.2,0.2,0.4,0.3,0.8,0.3c0.6,0,1.1-0.5,1.1-1.1
	C-278.4,404.7-278.5,404.4-278.7,404.1z M-293.8,396.1c0-3,2.5-5.5,5.5-5.5s5.5,2.5,5.5,5.5s-2.5,5.5-5.5,5.5
	S-293.8,399.1-293.8,396.1z"/>
</svg>
