<?xml version="1.0" encoding="utf-8"?>
<!-- Generator: Adobe Illustrator 19.0.1, SVG Export Plug-In . SVG Version: 6.00 Build 0)  -->
<svg version="1.1" id="Слой_1" xmlns="http://www.w3.org/2000/svg" xmlns:xlink="http://www.w3.org/1999/xlink" x="0px" y="0px"
	 viewBox="-231 360.3 148.1 72.7" style="enable-background:new -231 360.3 148.1 72.7;" xml:space="preserve">
<style type="text/css">
	.st0{fill:#B2B2B2;}
	.st1{fill:#FFFFFF;}
</style>
<g id="Layer_2">
	<g>
		<path class="st0" d="M-87.8,391.7c-1.5,1.1-3.1,1.9-4.7,2.8c0-1.7-0.1-3.5-0.6-5.1c0.1-0.3,0.1-0.7,0.1-1c0.4-3,0.7-7.1-2-9.2
			c-0.3-0.3-1.2,0-1.9,0.3c-0.2-0.2-0.3-0.3-0.5-0.4c-0.1-0.2-0.2-0.5-0.2-0.7c0-0.1-0.2-0.2-0.4-0.2c0.3-0.4,0.3-0.8-0.4-1.1
			c-0.4-0.2-0.8-0.3-1.1-0.4c-0.1-0.1-0.1-0.1-0.2-0.1c0,0,0,0,0,0c-0.9-0.3-1.9-0.5-2.9-0.7c0.1-0.3,0.4-0.8,0.6-1
			c0.1-0.2,0.3-0.3,0.4-0.4c0.1-0.1,0.1-0.1,0.2-0.2c0,0,0.1,0,0.1-0.1c0,0,0,0,0.1-0.1c0.4-0.3,0.8-0.9,0.2-1.2
			c-0.6-0.3-1.5-0.1-2,0.2c-0.9,0.7-1.6,1.4-2.1,2.4c-2-0.2-4.1-0.2-6.1-0.1c0.1-0.1,0.1-0.2,0.1-0.3c0.2-0.6-0.9-0.5-1.2-0.5
			c-1.6,0.2-3.1,0.4-4.7,0.6c1.4-3.8,3.1-8.6,1-12.3c-1.2-2.1-3.9-2.6-6.1-2.7c-2.4-0.1-4.9,0.5-7,1.6c-4.8,2.6-7.1,7.7-8.2,13.1
			c-0.5-0.7-2.3-0.4-2.6,0.5c-0.1,0.3-0.2,0.6-0.3,1c-0.2,0.2-0.3,0.4-0.3,0.6c0,0.1,0,0.1,0,0.2c-0.1,0-0.1,0-0.2,0
			c0-0.1,0-0.2,0.1-0.3c0.1-0.1,0.2-0.2,0.3-0.4c0.6-2.3,1.2-4.6,1.9-6.8c0.3-0.8-2.5-0.4-2.8,0.4c-0.4,1.2-0.8,2.4-1.1,3.6
			c-0.2,0.1-0.4,0.2-0.4,0.3c0,0,0,0.1,0,0.1c-0.1-0.1-0.3-0.2-0.5-0.2c0-0.3,0-0.6,0-1c0-0.4-2.8,0-2.8,0.8c0,0.5,0,1,0,1.6
			c-0.2,0.1-0.3,0.2-0.5,0.3c-0.1,0.1-0.1,0.1-0.2,0.2c-0.1,0.1-0.1,0.2-0.1,0.2c0,0,0,0.1,0,0.1c0,0,0,0-0.1,0.1
			c-0.1,0.1-0.2,0.3,0,0.5c0.2,0.2,0.5,0.2,0.7,0.2c0,0,0.1,0,0.1,0c0,0.2,0,0.3,0,0.5c-0.2,0-0.4,0-0.7,0l-0.4-0.1
			c0-0.4-0.7-0.5-1.4-0.3c0,0,0-0.1,0-0.1c-0.1-0.6-0.2-1.2-0.2-1.8c0.2-0.1,0.5-0.2,0.7-0.3c0.2-0.1,0.3-0.2,0.3-0.4
			c0-0.1,0-0.1,0-0.2c0-0.2-0.4-0.2-0.5-0.2c-0.2,0-0.4,0-0.6,0c-0.1-1.3-0.1-2.6-0.1-3.9c0-0.8-2.8-0.3-2.8,0.8
			c0,1.8,0,3.6,0.2,5.3c-0.1,0-0.2,0-0.3,0c0-0.5,0-1,0-1.5c0-1-1.3-1.2-2.1-0.8c0.3-0.3,0.5-0.6,0.4-1c-0.4-1.4-0.8-2.8-1-4.3
			c-0.2-1.4-3-0.7-2.8,0.8c0.2,1.5,0.6,2.9,1,4.3c0.2,0.8,1.3,0.9,2.1,0.5c-0.2,0.2-0.4,0.5-0.4,0.8c0,0.2,0,0.4,0,0.6
			c-0.2-0.1-0.4-0.2-0.8-0.2c-1.1,0-1.7,0.9-1.4,1.5c-0.2,0-0.3-0.1-0.5-0.1c-0.4-1.2-0.7-2.5-0.7-3.8c0-0.9-1.3-1-2.1-0.7
			c0-0.1,0-0.1,0-0.2c-0.4-0.8-0.6-1.7-0.8-2.5c-0.3-1.4-3.2-0.6-2.8,0.8c0.2,0.6,0.3,1.3,0.5,1.9c0,0,0,0-0.1,0
			c-0.3,0.1-0.6,0.2-0.9,0.4c-0.8,0.1-1.8,0.6-1.8,1.2c0.1,0.5,0.1,1,0.2,1.4c-0.5,0.1-1.1,0.2-1.6,0.3c-0.3-0.8-0.5-1.6-0.6-2.4
			c-0.1-0.9-1.6-0.9-2.3-0.3c-0.8-2.1-1.8-4-3.1-5.8c-2.6-3.4-7.1-4.6-11.2-3.8c-1.9,0.4-3.7,1.2-5,2.6c-1.2,1.4-1.4,3.1-1.2,4.8
			c0.2,1.5,0.6,4,1.6,6c-0.4,0-0.7,0-0.9,0.1c-0.3,0.1-0.6,0.2-0.8,0.4c-1.9,0-3.9,0-5.8-0.1c-4.2-0.2-8.3-0.9-12.5-0.7
			c-0.9,0-1.5,0.7-1.5,1.3c-1,0.5-1.7,1.3-2.1,2.3c-1.7-1.1-3.5-2.3-5.3-3.2c-0.7-0.4-3.3,0.7-2.3,1.2c1.8,0.9,3.6,2.1,5.3,3.2
			c0.5,0.3,1.3,0.1,1.8-0.1c0,0,0.1,0,0.2-0.1c-0.3,1.4-0.2,3.1,0.2,4.5c0,0.1,0.1,0.2,0.2,0.3c0,0.3,0,0.7,0,1c0,0.1,0,0.1,0,0.2
			c-0.4,0.2-0.7,0.5-0.8,0.8c-0.2,1.4-0.3,2.8-0.3,4.2c-0.3,0.2-0.5,0.5-0.5,0.8c-0.2,3.3,0,6.7,0.5,10c0.2,2.7,0.7,5.3,1.2,8
			c0.1,0.4,0.1,0.8,0.2,1.2c-0.3,1.1-0.4,2.4-0.2,3.5c-0.9,0.2-1.7,0.9-1.2,1.6c0.8,1.2,1.6,2,2.6,2.6c-0.6-0.1-1.4,0.1-1.9,0.6
			c-0.8,0.8-1.7,1.5-2.5,2.3c-0.4,0.4-0.3,0.9,0.3,1.1c0.7,0.2,1.5-0.1,2-0.5c0.8-0.8,1.7-1.5,2.5-2.3c0.2-0.2,0.3-0.5,0.2-0.7
			c3.2,1.7,7.2,1.3,11.1,0.9c-0.9,1.6-1.5,3.3-2.2,5c-0.3,0.7,2.5,0.4,2.8-0.4c0.6-1.7,1.2-3.3,2.1-4.9c3.7,0.1,7.5,0.1,11.2,0.1
			c0.1,0.2,0.4,0.3,0.7,0.3c3.3,0.3,6.5-0.1,9.7-0.7c4.8-0.2,9.6-0.5,14.4-0.8c7.5-0.2,15.1-0.3,22.6-0.3c0.1,0.1,0.2,0.2,0.3,0.3
			c0.3,0.3,0.6,0.3,1,0.3c0.1,0,0.1,0,0.2,0c0.7,0,1.4,0.1,2.1,0.1c0.2,0,0.3,0.1,0.6,0c0,0,0,0,0,0c0.8,0.1,1.6,0.1,2.3,0.2
			c0.2,0.2,0.5,0.3,0.8,0.4c3.8,0.3,7.6,0.5,11.4,0.7c0.1,0.2,0.5,0.3,0.8,0.3c7.1,0.1,15.3,2.8,21.6-1.7c0.5-0.4,0.3-0.9-0.3-1
			c-0.1,0-0.2,0-0.3,0c0,0,0,0,0,0c1.2-2.8,2.2-5.6,2.9-8.6c0.4-0.2,0.6-0.5,0.6-0.9c0-1.2,0.2-2.4,0.4-3.6c0.2-0.9,0.3-1.8,0.4-2.7
			c0.4-2.2,0.8-4.4,1-6.5c2.3-1.1,4.5-2.3,6.6-3.8C-84.4,391.7-86.8,390.9-87.8,391.7z M-143.2,376.6c0,0-0.1,0.1-0.1,0.1
			c0.1-0.3,0.1-0.6,0.2-0.9c0,0,0.1,0,0.1,0C-143,376.1-143.1,376.4-143.2,376.6z"/>
		<path class="st0" d="M-167.7,372.9c0.1,0.2,0.6,0.2,0.8,0.2c0.4,0,0.8-0.1,1.1-0.2c0.4-0.2,1.1-0.6,0.8-1.1
			c-0.4-0.6-0.6-1.2-1-1.8c-0.1-0.2-0.6-0.2-0.8-0.2c-0.4,0-0.8,0.1-1.1,0.2c-0.4,0.2-1.1,0.6-0.8,1.1
			C-168.4,371.7-168.1,372.4-167.7,372.9z"/>
		<path class="st0" d="M-210.3,371.2c0.2,0.6,1.1,0.6,1.6,0.5c0.5-0.1,1.4-0.6,1.2-1.3c-0.2-0.6-0.4-1.3-0.9-1.8
			c-0.5-0.5-1.3-0.4-1.9-0.2c-0.4,0.2-1.2,0.8-0.7,1.3C-210.6,370.3-210.5,370.6-210.3,371.2z"/>
		<path class="st0" d="M-200.3,374.2c0.8,0,3.1-1.3,1.2-1.3C-200,372.9-202.2,374.2-200.3,374.2z"/>
		<path class="st0" d="M-108.4,372.6c0.3,0.1,0.7,0,1.1-0.1c0.3-0.1,0.7-0.2,0.9-0.5c0.4-0.4,0.7-0.7,1-1.2c0.1-0.2,0.2-0.4,0-0.6
			c-0.2-0.2-0.5-0.2-0.8-0.3c-0.4,0-0.8,0.1-1.1,0.2c-0.3,0.1-0.6,0.3-0.8,0.6c-0.1,0.2-0.2,0.4-0.4,0.5c0,0,0,0,0,0c0,0,0,0,0,0
			c-0.1,0.1-0.1,0.1-0.2,0.2c-0.2,0.2-0.3,0.4-0.3,0.6C-108.9,372.4-108.7,372.5-108.4,372.6z"/>
		<path class="st0" d="M-95.1,378c0.6-0.1,1.4-0.2,1.9-0.7c1.3-1.1,2.6-2.2,3.6-3.6c0.3-0.4-1-0.2-1.1-0.2c-0.5,0.1-1.3,0.3-1.7,0.7
			c-0.9,1.3-2.2,2.3-3.4,3.4C-96.3,378-95.4,378-95.1,378z"/>
		<path class="st0" d="M-84.3,405.1c-1.6,0-3.2,0-4.9,0c-0.6,0-1.5,0.5-1.6,1.1c-0.1,0.7,0.8,0.9,1.3,0.9c1.6,0,3.2,0,4.9,0
			c0.6,0,1.5-0.5,1.6-1.1C-82.9,405.2-83.7,405.1-84.3,405.1z"/>
		<path class="st0" d="M-174,421.1c-0.5,0.1-1.4,0.3-1.6,0.8c-0.5,1.3-1,2.6-1.4,3.9c-0.2,0.7,2.6,0.3,2.8-0.5
			c0.4-1.3,0.8-2.6,1.4-3.9C-172.6,420.9-173.8,421-174,421.1z"/>
		<path class="st0" d="M-169.4,423.7c-0.3,0-0.7,0.1-1,0.2c-0.3,0.1-0.7,0.2-1,0.4c-0.1,0.1-0.3,0.2-0.3,0.4c0,0.1,0,0.2,0,0.3
			c0,0.1-0.1,0.2-0.1,0.3c0,0,0,0,0,0c-0.1,0.1-0.1,0.2,0,0.3c0.2,0.1,0.5,0.1,0.7,0.1c0.4,0,0.7-0.1,1.1-0.3
			c0.2-0.1,0.6-0.2,0.8-0.4c0.1-0.2,0.2-0.3,0.3-0.5c0-0.2,0.1-0.3,0.1-0.5C-168.9,423.7-169.3,423.7-169.4,423.7z"/>
		<path class="st0" d="M-114.3,427.3c-0.4-0.7-3,0.3-2.8,0.8c0.8,1.6,1.9,3.1,2.9,4.7c0.4,0.7,3-0.4,2.8-0.8
			C-112.4,430.5-113.5,429-114.3,427.3z"/>
		<path class="st0" d="M-110.3,425c-0.3-0.6-1.1-0.6-1.6-0.4c-0.3,0.1-1.5,0.6-1.2,1.2c0.4,0.8,0.8,1.6,1.2,2.3
			c0.3,0.6,1.1,0.6,1.6,0.4c0.3-0.1,1.5-0.6,1.2-1.2C-109.5,426.6-109.9,425.8-110.3,425z"/>
		<path class="st0" d="M-225.3,403.4c-1.5,0.4-3,0.6-4.5,1c-0.5,0.1-1.3,0.6-1.2,1.3c0.2,0.7,1.1,0.7,1.7,0.6c1.5-0.4,3-0.6,4.5-1
			c0.5-0.1,1.3-0.7,1.2-1.3C-223.9,403.3-224.8,403.3-225.3,403.4z"/>
	</g>
</g>
<g id="Layer_1">
	<g>
		<path class="st1" d="M-187.2,400.4c-0.1-2.7-0.5-5.4-0.5-8.1c0-2.2,0.4-4.4-0.4-6.6c0-0.2,0.1-0.5,0.1-0.7
			c0.2-1.1-3.3-0.5-3.8,0.5c-0.3,0.3-0.5,0.6-0.4,1c0,0.1,0.1,0.2,0.1,0.3c-0.7,3.2-1.6,6.4-2.6,9.5c-0.4,1.2-0.9,2.4-1.3,3.6
			c-0.6-1.1-1.2-2.2-1.7-3.4c-1.4-3.5-2.6-7-4.3-10.3c0.2-1.5-3.2-1.4-3.9,0c-0.8,1.7-0.7,3.4-0.4,5.3c0.3,2.1,0.4,4.1,0.4,6.2
			c0,4,0.4,8,0.4,12c-0.4,0.4-0.5,0.9-0.1,1.4c0.2,0.2,0.4,0.4,0.6,0.6c0.9,0.7,3.5,0.1,3.5-1.3c0-4.2-0.3-8.3-0.4-12.5
			c0-0.4,0-0.8,0-1.2c0.1,0.1,0.1,0.3,0.2,0.4c0.6,1.6,1.3,3.2,2.2,4.7c0.9,1.5,1.3,3.1,1.8,4.7c-0.2,0.2-0.3,0.5-0.2,0.7
			c0,0.2,0.1,0.3,0.3,0.4c0.6,0.6,1.9,0.3,2.5,0c0.3-0.1,0.6-0.3,0.8-0.4c0.3-0.2,0.9-0.7,0.7-1.2c0-0.1-0.1-0.2-0.1-0.3
			c0.5-1.3,0.7-2.6,1-4c0.3-1.4,0.8-2.8,1.3-4.2c0.1,0.6,0.1,1.2,0.2,1.9c0.2,2.6,0,5.1,0,7.7c0,0.9,0.1,1.6,0.2,2.5
			c0.1,0.3,0.4,1.8,0.3,1.9c-0.6,0.6-0.4,1.3,0.4,1.5c0.9,0.2,2.1-0.1,2.8-0.7c1.2-1.1,0.6-2.9,0.4-4.3
			C-187.7,405.5-187.2,402.8-187.2,400.4z"/>
		<path class="st1" d="M-178.8,401.1c-0.1-2-0.8-3.9-0.8-5.9c0-2.3,0.2-4.6-0.2-6.9c-0.1-0.7-4.1,0.1-4,1.1c0.3,2.1,0.2,4.3,0.2,6.4
			c0,2.1,0.5,3.9,0.7,6c0.3,2.1-0.1,4.2,0.1,6.3c0.1,1,0.8,2.8,0.1,3.6c-0.4,0.5,1.5,0.3,1.6,0.3c0.8-0.1,1.8-0.4,2.3-1
			c0.7-0.8,0.2-2.4,0.1-3.4C-178.9,405.3-178.7,403.2-178.8,401.1z"/>
		<path class="st1" d="M-162.3,397.7c-2.1-2.8-5.9-0.8-8.6-1.6c-1.4-0.4-1.4-2.3-1.4-3.4c0-1.4-0.1-2.8-0.3-4.2
			c-0.1-1.1,0-2.1,0.8-2.9c0.1-0.1,0.9-0.3,0.8-0.3c0.4-0.1,0.7-0.1,1.1-0.1c1.6-0.1,4.7,0.2,4.1,2.5c-0.3,1,3.6,0.4,3.9-0.6
			c1.2-4.6-7.4-3.7-9.8-3.1c-2.2,0.6-4.7,1.9-4.8,4.4c-0.1,1.2,0.3,2.4,0.3,3.6c0.1,1.4-0.2,2.8,0.3,4.2c1.1,3,5.6,1.6,7.8,1.8
			c3.9,0.3,2.7,5.5,2.8,8c0,1.3,1.2,3.5,0.2,4.5c-0.6,0.7-2,0.7-2.8,0.8c-0.8,0.1-2.2,0.3-2.8-0.5c-1-1.4,0.1-3.8-0.1-5.5
			c-0.1-0.9-4.1-0.1-4,1.1c0.3,2.7-1.4,6.2,2.4,6.7c2.5,0.3,5.2-0.2,7.6-0.9c1.2-0.4,2.3-1,3.3-1.8c1-0.9,0.7-2.4,0.4-3.6
			C-161.8,403.7-160.4,400.3-162.3,397.7z"/>
		<path class="st1" d="M-144.8,397.5c-0.1-3.8-0.7-7.6-0.7-11.4c0-2-4-1.3-4,0.3c0,3.6,0.5,7.2,0.7,10.9c0,0.1,0,0.1,0,0.2
			c-2,0-3.9,0.2-5.9,0.2c0.2-4.7-0.6-9.3-0.4-14c0-0.6-3.9-0.1-4,1.1c-0.2,4.5,0.6,9,0.5,13.5c-0.1,2.2-0.2,4.3-0.3,6.5
			c0,1.1,0.2,2.2,0.3,3.3c0.1,1,0.5,2.4,0.2,3.3c-0.2,0.8,3.6,0.3,3.9-0.7c0.6-1.8-0.2-4.1-0.4-5.9c-0.2-1.7,0-3.5,0.1-5.3
			c2-0.1,4.1-0.3,6.1,0c0.1,1.4,0.2,2.8,0.3,4.2c0.1,1.2,0.2,2.3,0.2,3.5c0,1,0.1,2.5-0.2,3.5c-0.8,2.1,3.2,1.9,3.8,0.4
			c0.7-1.9,0.5-4.2,0.4-6.2C-144.4,402.5-144.8,400-144.8,397.5z"/>
		<path class="st1" d="M-127.8,402.1c-0.9-2.8-2.4-5.2-3.6-7.9c1-2,2-3.9,3-5.9c0.8-1.8,1.5-3.9,3.1-5.1c0.6-0.5,0.6-0.9-0.3-1
			c-0.9-0.1-2.1,0.2-2.8,0.7c-1.5,1.2-2.4,2.6-3.2,4.3c-0.9,2.1-1.9,4.1-2.9,6.1c-0.1,0.1-0.2,0.3-0.2,0.4c-0.5,0.3-0.8,0.8-0.6,1.3
			c-0.8,1.6-1.6,3.1-2.5,4.7c-0.3-5.6-1-11.2-1.2-16.8c0-1.3-4-0.5-4,1.1c0.2,6.9,1.2,13.8,1.3,20.8c0,0,0,0,0,0.1
			c-0.3,0.3-0.2,0.5,0.1,0.6c0,1.8-0.1,3.5-0.2,5.3c-0.5,0.8,0.5,1.1,1.1,1.1c0,0,0.1,0,0.1,0c0.7,0,2.6-0.4,2.7-1.4
			c0.2-2.1,0.3-4.2,0.2-6.3c1.6-1.7,2.9-3.7,4.1-5.7c0.8,1.5,1.5,3,2,4.6c0.9,2.8,2.3,5.3,3.2,8.1c0.6,1.8,4.5,0.7,4-1.1
			C-125.4,407.4-126.8,404.8-127.8,402.1z"/>
		<path class="st1" d="M-104,397.4c-0.2-0.8-1.4-0.9-2.3-0.8c0-0.3,0-0.7,0-1c-0.1-2.7-0.2-5.4-0.4-8.1c-0.2-2.5-1.6-3.4-4-3.3
			c-2.4,0.1-5.3,0.5-7.6,1.4c-2.6,1-4.1,3-4.6,5.7c-0.6,3,0.2,6.3,0.4,9.3c0.2,3.5,0.1,7.1,0.1,10.6c0,0.6,4,0,4-1.1
			c0-2.8,0-5.6,0-8.4c0-0.8-0.1-1.6-0.1-2.5c1.4-0.6,3.7,0,5.1,0.1c1.1,0.1,2.2-0.2,3.3-0.3c0,2.3,0.1,4.7,0.2,7
			c0,1.2,0.5,3.6-0.4,4.6c-0.4,0.5,1.5,0.3,1.6,0.3c0.8-0.1,1.8-0.4,2.3-1.1c1-1.1,0.5-3.8,0.4-5.2c-0.1-1.9-0.1-3.9-0.1-5.8
			C-105.1,398.9-103.8,398.2-104,397.4z M-118.8,397.2c-0.1-1.3-0.2-2.5-0.3-3.8c-0.2-2.4,0.1-5.6,2.3-7.1c0.6-0.4,1.7-0.3,2.4-0.4
			c1-0.2,2-0.4,2.9,0.2c1.2,0.8,0.9,3.7,0.9,4.9c0,2,0.2,4,0.3,6.1c-0.6,0.1-1.1,0.1-1.7,0.1C-114.3,397.1-116.6,396.8-118.8,397.2z
			"/>
		<path class="st1" d="M-182.2,385.5c0.5-0.1,1.1-0.2,1.5-0.5c0.1-0.1,0.2-0.1,0.3-0.2c0.5-0.3,1-0.8,0.7-1.4
			c-0.5-1.1-0.4-2.3-0.4-3.4c0-1-1-1.3-1.8-1.2c-0.7,0.1-2.2,0.6-2.2,1.5c0,1-0.1,2,0.1,3c0,0.1-0.1,0.2-0.1,0.4
			c-0.1,0.2,0,0.4,0.1,0.6c0,0,0,0.1,0,0.1c0,0.1,0,0.2,0,0.3c0.1,0.2,0.2,0.4,0.4,0.5C-183.2,385.5-182.7,385.5-182.2,385.5z"/>
	</g>
</g>
</svg>
