<?xml version="1.0" encoding="utf-8"?>
<!-- Generator: Adobe Illustrator 21.0.0, SVG Export Plug-In . SVG Version: 6.00 Build 0)  -->
<svg version="1.1" id="Laag_1" xmlns="http://www.w3.org/2000/svg" xmlns:xlink="http://www.w3.org/1999/xlink" x="0px" y="0px"
	 viewBox="0 0 100.7 76.9" style="enable-background:new 0 0 100.7 76.9;" xml:space="preserve">
<style type="text/css">
	.st0{fill:#63D1BB;}
	.st1{fill:#FFFFFF;}
</style>
<g>
	<g>
		<path class="st0" d="M97,18.1c0,0-0.9-7-3.8-10.1c-3.6-4-7.7-4.1-9.5-4.3c-13.3-1-33.3-1-33.3-1h-0.1c0,0-20,0-33.3,1
			C15.1,4,11.1,4,7.4,8.1c-2.8,3.1-3.8,10.1-3.8,10.1s-0.9,8.2-0.9,16.4v7.7c0,8.2,0.9,16.4,0.9,16.4s0.9,7,3.8,10.1
			c3.6,4,8.4,3.9,10.5,4.3c7.6,0.8,32.4,1,32.4,1s20,0,33.3-1c1.9-0.2,5.9-0.3,9.5-4.3C96,65.7,97,58.7,97,58.7s0.9-8.2,0.9-16.4
			v-7.7C97.9,26.4,97,18.1,97,18.1z"/>
		<path class="st1" d="M50.3,76.9L50.3,76.9c-1,0-25-0.3-32.6-1l-0.1,0l-0.1,0c-0.3-0.1-0.7-0.1-1.1-0.2c-2.5-0.3-7.2-0.9-10.8-5
			C2.1,67,1.1,59.9,1,59l0,0c0-0.3-1-8.5-1-16.7v-7.7c0-8.3,0.9-16.4,0.9-16.7l0-0.1C1,17,2.1,9.9,5.4,6.2c4-4.4,8.5-4.9,10.7-5.1
			c0.2,0,0.4,0,0.5-0.1l0.1,0C30,0,50.1,0,50.3,0h0.1c0.2,0,20.2,0,33.5,1L84,1c0.2,0,0.3,0,0.5,0.1c2.2,0.2,6.7,0.7,10.7,5.1
			c3.4,3.6,4.4,10.8,4.5,11.6l0,0c0,0.3,1,8.5,1,16.8v7.7c0,8.3-0.9,16.4-1,16.7l0,0.1c-0.1,0.8-1.2,8-4.5,11.6
			c-4,4.4-8.5,4.9-10.7,5.1c-0.2,0-0.4,0-0.5,0.1l-0.1,0C70.6,76.9,50.5,76.9,50.3,76.9L50.3,76.9L50.3,76.9z M18.4,70.4
			c7.5,0.7,31.2,1,32,1c0.7,0,20.1,0,33-1c0.2,0,0.4,0,0.6-0.1c1.8-0.2,4.6-0.5,7.2-3.3l0,0c1.8-2,2.9-6.9,3.1-8.6
			c0.1-0.5,0.9-8.4,0.9-16.1v-7.7c0-7.8-0.9-15.6-1-16.1c-0.3-2.4-1.4-6.8-3.1-8.5l0,0c-2.6-2.9-5.4-3.1-7.2-3.3
			c-0.2,0-0.4,0-0.6-0.1c-13.1-1-32.8-1-33-1h-0.1c-0.2,0-20,0-33,1c-0.2,0-0.4,0-0.6,0.1C14.8,6.8,12.1,7,9.5,9.9l0,0
			c-1.8,2-2.9,6.9-3.1,8.6c-0.1,0.6-0.9,8.4-0.9,16.1v7.7c0,7.7,0.9,15.6,0.9,16.1c0.3,2.4,1.4,6.8,3.1,8.5l0,0
			c2.3,2.6,5.3,3,7.5,3.3C17.5,70.3,17.9,70.3,18.4,70.4z"/>
	</g>
</g>
<g>
	<polygon class="st1" points="38.4,20.6 38.4,56.3 68.2,38.4 	"/>
</g>
</svg>
